<mxfile host="65bd71144e">
    <diagram id="qnoMh05kB3VO1Tk_qg1j" name="Page-1">
        <mxGraphModel dx="668" dy="1587" grid="1" gridSize="10" guides="1" tooltips="1" connect="1" arrows="1" fold="1" page="1" pageScale="1" pageWidth="827" pageHeight="1169" math="0" shadow="0">
            <root>
                <mxCell id="0"/>
                <mxCell id="1" parent="0"/>
                <mxCell id="22" value="Admin" style="verticalLabelPosition=bottom;sketch=0;html=1;fillColor=#A153A0;verticalAlign=top;align=center;pointerEvents=1;shape=mxgraph.cisco_safe.design.actor_2;" parent="1" vertex="1">
                    <mxGeometry x="374" y="-220" width="80" height="100" as="geometry"/>
                </mxCell>
                <mxCell id="25" value="" style="verticalLabelPosition=bottom;sketch=0;html=1;fillColor=#A153A0;verticalAlign=top;align=center;pointerEvents=1;shape=mxgraph.cisco_safe.design.actor_2;" parent="1" vertex="1">
                    <mxGeometry x="1020" y="-230" width="69" height="100" as="geometry"/>
                </mxCell>
                <mxCell id="26" value="User&lt;div&gt;&lt;br&gt;&lt;/div&gt;" style="text;html=1;align=center;verticalAlign=middle;resizable=0;points=[];autosize=1;strokeColor=none;fillColor=none;" parent="1" vertex="1">
                    <mxGeometry x="1029.5" y="-130" width="50" height="40" as="geometry"/>
                </mxCell>
                <mxCell id="27" value="Login" style="strokeWidth=2;html=1;shape=mxgraph.flowchart.start_1;whiteSpace=wrap;" parent="1" vertex="1">
                    <mxGeometry x="650" y="-400" width="100" height="60" as="geometry"/>
                </mxCell>
                <mxCell id="28" value="" style="endArrow=classic;html=1;entryX=-0.03;entryY=0.4;entryDx=0;entryDy=0;entryPerimeter=0;exitX=1.063;exitY=0.26;exitDx=0;exitDy=0;exitPerimeter=0;" parent="1" source="22" target="27" edge="1">
                    <mxGeometry width="50" height="50" relative="1" as="geometry">
                        <mxPoint x="690" y="-170" as="sourcePoint"/>
                        <mxPoint x="740" y="-220" as="targetPoint"/>
                        <Array as="points"/>
                    </mxGeometry>
                </mxCell>
                <mxCell id="29" value="" style="endArrow=classic;html=1;entryX=1;entryY=0.5;entryDx=0;entryDy=0;entryPerimeter=0;exitX=-0.043;exitY=0.47;exitDx=0;exitDy=0;exitPerimeter=0;" parent="1" source="25" target="27" edge="1">
                    <mxGeometry width="50" height="50" relative="1" as="geometry">
                        <mxPoint x="690" y="-170" as="sourcePoint"/>
                        <mxPoint x="740" y="-220" as="targetPoint"/>
                    </mxGeometry>
                </mxCell>
                <mxCell id="30" value="Add Products" style="strokeWidth=2;html=1;shape=mxgraph.flowchart.start_1;whiteSpace=wrap;" parent="1" vertex="1">
                    <mxGeometry x="540" y="-267" width="100" height="60" as="geometry"/>
                </mxCell>
                <mxCell id="31" value="Add To Cart" style="strokeWidth=2;html=1;shape=mxgraph.flowchart.start_1;whiteSpace=wrap;" parent="1" vertex="1">
                    <mxGeometry x="760" y="-210" width="100" height="60" as="geometry"/>
                </mxCell>
                <mxCell id="32" value="remove Products" style="strokeWidth=2;html=1;shape=mxgraph.flowchart.start_1;whiteSpace=wrap;" parent="1" vertex="1">
                    <mxGeometry x="540" y="-180" width="100" height="60" as="geometry"/>
                </mxCell>
                <mxCell id="33" value="manage Orders" style="strokeWidth=2;html=1;shape=mxgraph.flowchart.start_1;whiteSpace=wrap;" parent="1" vertex="1">
                    <mxGeometry x="540" y="-90" width="100" height="60" as="geometry"/>
                </mxCell>
                <mxCell id="34" value="view report" style="strokeWidth=2;html=1;shape=mxgraph.flowchart.start_1;whiteSpace=wrap;" parent="1" vertex="1">
                    <mxGeometry x="540" y="-10" width="100" height="60" as="geometry"/>
                </mxCell>
                <mxCell id="35" value="Browse Products" style="strokeWidth=2;html=1;shape=mxgraph.flowchart.start_1;whiteSpace=wrap;" parent="1" vertex="1">
                    <mxGeometry x="760" y="-140" width="100" height="60" as="geometry"/>
                </mxCell>
                <mxCell id="36" value="Order Product" style="strokeWidth=2;html=1;shape=mxgraph.flowchart.start_1;whiteSpace=wrap;" parent="1" vertex="1">
                    <mxGeometry x="770" y="-60" width="100" height="60" as="geometry"/>
                </mxCell>
                <mxCell id="37" value="Payment" style="strokeWidth=2;html=1;shape=mxgraph.flowchart.start_1;whiteSpace=wrap;" parent="1" vertex="1">
                    <mxGeometry x="770" y="20" width="100" height="60" as="geometry"/>
                </mxCell>
                <mxCell id="38" value="" style="endArrow=classic;html=1;entryX=0;entryY=0.5;entryDx=0;entryDy=0;entryPerimeter=0;exitX=1.038;exitY=0.71;exitDx=0;exitDy=0;exitPerimeter=0;" parent="1" source="22" target="30" edge="1">
                    <mxGeometry width="50" height="50" relative="1" as="geometry">
                        <mxPoint x="520" y="-130" as="sourcePoint"/>
                        <mxPoint x="370" y="-229.98000000000002" as="targetPoint"/>
                    </mxGeometry>
                </mxCell>
                <mxCell id="39" value="" style="endArrow=classic;html=1;entryX=0;entryY=0.5;entryDx=0;entryDy=0;entryPerimeter=0;" parent="1" target="34" edge="1">
                    <mxGeometry width="50" height="50" relative="1" as="geometry">
                        <mxPoint x="450" y="-110" as="sourcePoint"/>
                        <mxPoint x="740" y="-180" as="targetPoint"/>
                    </mxGeometry>
                </mxCell>
                <mxCell id="40" value="" style="endArrow=classic;html=1;entryX=0;entryY=0.333;entryDx=0;entryDy=0;entryPerimeter=0;" parent="1" target="33" edge="1">
                    <mxGeometry width="50" height="50" relative="1" as="geometry">
                        <mxPoint x="470" y="-130" as="sourcePoint"/>
                        <mxPoint x="740" y="-180" as="targetPoint"/>
                    </mxGeometry>
                </mxCell>
                <mxCell id="41" value="" style="endArrow=classic;html=1;entryX=1;entryY=0.617;entryDx=0;entryDy=0;entryPerimeter=0;" parent="1" target="31" edge="1">
                    <mxGeometry width="50" height="50" relative="1" as="geometry">
                        <mxPoint x="1000" y="-160" as="sourcePoint"/>
                        <mxPoint x="740" y="-180" as="targetPoint"/>
                    </mxGeometry>
                </mxCell>
                <mxCell id="42" value="" style="endArrow=classic;html=1;entryX=1;entryY=0.5;entryDx=0;entryDy=0;entryPerimeter=0;" parent="1" target="35" edge="1">
                    <mxGeometry width="50" height="50" relative="1" as="geometry">
                        <mxPoint x="1010" y="-130" as="sourcePoint"/>
                        <mxPoint x="740" y="-180" as="targetPoint"/>
                    </mxGeometry>
                </mxCell>
                <mxCell id="43" value="" style="endArrow=classic;html=1;entryX=1;entryY=0.5;entryDx=0;entryDy=0;entryPerimeter=0;" parent="1" edge="1" target="36">
                    <mxGeometry width="50" height="50" relative="1" as="geometry">
                        <mxPoint x="1010" y="-100" as="sourcePoint"/>
                        <mxPoint x="890" y="-40" as="targetPoint"/>
                    </mxGeometry>
                </mxCell>
                <mxCell id="44" value="" style="endArrow=classic;html=1;" parent="1" edge="1">
                    <mxGeometry width="50" height="50" relative="1" as="geometry">
                        <mxPoint x="1040" y="-80" as="sourcePoint"/>
                        <mxPoint x="890" y="50" as="targetPoint"/>
                    </mxGeometry>
                </mxCell>
                <mxCell id="45" value="Register" style="strokeWidth=2;html=1;shape=mxgraph.flowchart.start_1;whiteSpace=wrap;" vertex="1" parent="1">
                    <mxGeometry x="750" y="-290" width="100" height="60" as="geometry"/>
                </mxCell>
                <mxCell id="46" value="" style="endArrow=classic;html=1;entryX=1;entryY=0.5;entryDx=0;entryDy=0;entryPerimeter=0;" edge="1" parent="1" target="45">
                    <mxGeometry width="50" height="50" relative="1" as="geometry">
                        <mxPoint x="1010" y="-170" as="sourcePoint"/>
                        <mxPoint x="820" y="-170" as="targetPoint"/>
                    </mxGeometry>
                </mxCell>
            </root>
        </mxGraphModel>
    </diagram>
</mxfile>